<?xml version="1.0" standalone="no"?>
<!DOCTYPE svg PUBLIC "-//W3C//DTD SVG 20010904//EN"
 "http://www.w3.org/TR/2001/REC-SVG-20010904/DTD/svg10.dtd">
<svg version="1.0" xmlns="http://www.w3.org/2000/svg"
 width="700.000000pt" height="700.000000pt" viewBox="0 0 700.000000 700.000000"
 preserveAspectRatio="xMidYMid meet">

<g transform="translate(0.000000,700.000000) scale(0.100000,-0.100000)"
fill="#000000" stroke="none">
<path d="M3252 6690 c-505 -49 -969 -230 -1381 -537 -152 -114 -410 -372 -524
-524 -380 -510 -567 -1100 -543 -1724 21 -567 201 -1075 543 -1534 114 -153
372 -410 525 -525 1013 -756 2398 -722 3358 82 376 315 662 730 821 1190 294
853 147 1781 -397 2510 -115 153 -372 411 -525 525 -380 284 -790 453 -1264
523 -122 18 -486 26 -613 14z m323 -651 c57 -15 151 -116 263 -282 285 -425
351 -757 219 -1109 -14 -35 -90 -193 -169 -349 -143 -283 -190 -400 -223 -556
-26 -125 -45 -300 -45 -409 l0 -104 49 0 48 0 6 143 c15 353 142 653 377 887
263 263 607 379 904 304 90 -23 154 -60 222 -128 105 -105 156 -247 156 -431
-2 -349 -235 -648 -573 -734 -41 -10 -76 -17 -77 -16 -2 2 6 41 17 86 25 99
27 224 6 296 -21 70 -90 146 -152 167 -103 35 -243 11 -367 -64 -81 -49 -203
-179 -248 -265 -32 -61 -78 -198 -78 -231 0 -6 24 -14 54 -17 62 -6 98 -26
114 -63 39 -85 -19 -164 -121 -164 -45 0 -48 -1 -42 -22 14 -45 56 -133 81
-165 l24 -32 36 24 c124 84 266 46 330 -90 57 -119 8 -268 -109 -335 -156 -89
-324 -18 -417 175 -42 87 -91 248 -111 369 l-13 76 -53 0 c-45 0 -53 -3 -53
-19 0 -53 44 -264 84 -401 84 -291 86 -323 28 -444 -58 -120 -115 -170 -207
-183 -106 -14 -196 45 -261 173 -37 73 -39 82 -38 163 1 72 10 114 52 256 54
183 77 286 88 389 l7 66 -60 0 -59 0 -18 -96 c-61 -325 -164 -507 -313 -550
-217 -63 -414 160 -319 361 64 136 206 174 330 90 l36 -24 24 32 c25 32 67
120 81 165 6 20 3 22 -35 22 -57 0 -99 24 -117 67 -34 83 28 163 128 163 35 0
35 4 8 100 -34 124 -82 204 -184 305 -127 128 -245 185 -379 185 -89 0 -132
-16 -187 -67 -91 -85 -115 -226 -69 -409 12 -47 20 -87 18 -89 -9 -8 -161 39
-223 69 -158 78 -274 194 -350 351 -58 120 -77 205 -78 335 0 390 263 620 656
570 231 -29 444 -137 627 -320 236 -234 361 -532 377 -892 l6 -138 60 0 59 0
-6 118 c-15 245 -45 420 -103 586 -37 108 -75 187 -224 476 -134 259 -179 402
-179 575 0 208 65 412 209 654 75 127 220 321 267 359 62 49 129 63 209 41z"/>
<path d="M535 824 c-52 -56 -16 -144 58 -144 34 0 77 33 77 58 0 20 -28 13
-35 -8 -9 -28 -51 -37 -75 -15 -25 23 -26 76 -2 98 23 21 46 22 66 1 9 -8 24
-14 33 -12 16 3 15 6 -5 26 -32 32 -86 30 -117 -4z"/>
<path d="M1083 833 c-4 -10 -11 -21 -17 -25 -8 -6 -7 -10 1 -16 6 -4 13 -30
15 -57 3 -46 5 -50 31 -53 29 -4 37 12 12 22 -10 3 -15 19 -15 46 0 29 4 40
15 40 8 0 15 5 15 10 0 6 -7 10 -15 10 -8 0 -15 9 -15 20 0 25 -18 26 -27 3z"/>
<path d="M1400 818 c0 -25 -3 -29 -12 -20 -19 19 -55 14 -72 -10 -20 -28 -20
-57 -1 -85 13 -18 25 -22 65 -21 l50 1 0 84 c0 67 -3 83 -15 83 -10 0 -15 -10
-15 -32z m-12 -40 c30 -30 -2 -93 -36 -71 -21 13 -27 50 -12 69 15 17 32 18
48 2z"/>
<path d="M1530 766 l0 -83 50 -2 c40 0 52 3 65 21 34 50 0 115 -56 104 -26 -5
-29 -3 -29 19 0 16 -6 25 -15 25 -12 0 -15 -16 -15 -84z m88 12 c30 -30 -2
-93 -36 -71 -21 13 -27 50 -12 69 15 17 32 18 48 2z"/>
<path d="M1890 765 c0 -69 3 -85 15 -85 12 0 15 14 16 63 l0 62 24 -60 c12
-33 29 -61 38 -63 10 -2 23 18 40 60 l26 63 1 -62 c0 -49 3 -63 15 -63 12 0
15 16 15 85 0 82 -1 85 -23 85 -20 0 -27 -10 -47 -67 l-24 -67 -18 43 c-10 24
-21 54 -24 67 -4 17 -13 24 -30 24 -23 0 -24 -2 -24 -85z"/>
<path d="M2400 840 c0 -5 7 -10 15 -10 8 0 15 5 15 10 0 6 -7 10 -15 10 -8 0
-15 -4 -15 -10z"/>
<path d="M2740 765 c0 -69 3 -85 15 -85 10 0 15 10 15 29 0 16 6 34 14 40 10
9 19 3 40 -29 17 -25 34 -40 47 -40 19 0 17 5 -16 51 l-38 50 34 35 c28 28 30
34 14 34 -11 0 -36 -17 -57 -37 l-38 -37 0 37 c0 26 -4 37 -15 37 -12 0 -15
-16 -15 -85z"/>
<path d="M3050 765 c0 -69 3 -85 15 -85 12 0 15 16 15 85 0 69 -3 85 -15 85
-12 0 -15 -16 -15 -85z"/>
<path d="M3110 840 c0 -5 7 -10 15 -10 8 0 15 5 15 10 0 6 -7 10 -15 10 -8 0
-15 -4 -15 -10z"/>
<path d="M3170 765 c0 -69 3 -85 15 -85 9 0 15 9 15 24 0 37 17 40 36 6 10
-16 26 -30 36 -30 16 0 15 5 -8 40 l-27 41 23 24 c33 35 4 33 -32 -2 l-28 -27
0 47 c0 35 -4 47 -15 47 -12 0 -15 -16 -15 -85z"/>
<path d="M690 744 c0 -49 3 -64 14 -64 11 0 16 14 18 48 2 38 7 49 26 57 33
15 27 22 -18 22 l-40 0 0 -63z"/>
<path d="M790 790 c-11 -11 -20 -31 -20 -45 0 -53 69 -85 105 -49 22 22 11 30
-20 14 -20 -11 -27 -11 -40 0 -26 21 -17 30 30 30 37 0 45 3 45 18 0 25 -31
52 -58 52 -12 0 -31 -9 -42 -20z m68 -17 c2 -9 -7 -13 -27 -13 -31 0 -42 14
-18 23 19 8 40 3 45 -10z"/>
<path d="M930 795 c-18 -22 -4 -31 24 -16 24 13 46 8 46 -9 0 -5 -16 -12 -35
-16 -43 -8 -63 -29 -48 -52 7 -12 25 -17 65 -18 l55 -1 -5 51 c-2 30 -11 56
-20 64 -22 17 -67 15 -82 -3z m70 -69 c0 -18 -39 -31 -52 -18 -15 15 0 32 28
32 14 0 24 -6 24 -14z"/>
<path d="M1180 790 c-11 -11 -20 -31 -20 -45 0 -53 69 -85 105 -49 22 22 11
30 -20 14 -20 -11 -27 -11 -40 0 -26 21 -17 30 30 30 37 0 45 3 45 18 0 25
-31 52 -58 52 -12 0 -31 -9 -42 -20z m68 -17 c2 -9 -7 -13 -27 -13 -31 0 -42
14 -18 23 19 8 40 3 45 -10z"/>
<path d="M1670 805 c0 -3 11 -33 25 -66 24 -59 24 -60 5 -79 -25 -25 -25 -30
-1 -30 25 0 35 14 65 94 30 78 31 86 13 86 -8 0 -20 -21 -28 -47 l-15 -48 -18
48 c-11 26 -25 47 -32 47 -8 0 -14 -2 -14 -5z"/>
<path d="M2130 795 c-18 -22 -4 -31 24 -16 24 13 46 8 46 -9 0 -5 -16 -12 -35
-16 -43 -8 -63 -29 -48 -52 7 -12 25 -17 65 -18 l55 -1 -5 51 c-2 30 -11 56
-20 64 -22 17 -67 15 -82 -3z m70 -69 c0 -18 -39 -31 -52 -18 -15 15 0 32 28
32 14 0 24 -6 24 -14z"/>
<path d="M2279 777 l20 -33 -25 -32 c-21 -26 -23 -32 -9 -32 9 0 25 10 35 22
l18 23 19 -24 c11 -13 25 -22 32 -20 9 3 6 12 -8 31 -25 31 -26 51 -6 68 19
16 19 30 0 30 -8 0 -19 -9 -26 -21 l-11 -21 -14 21 c-9 12 -22 21 -30 21 -13
0 -12 -6 5 -33z"/>
<path d="M2400 745 c0 -51 3 -65 15 -65 12 0 15 14 15 65 0 51 -3 65 -15 65
-12 0 -15 -14 -15 -65z"/>
<path d="M2450 744 c0 -50 3 -64 15 -64 11 0 15 12 15 49 0 35 4 51 16 55 26
10 34 -3 34 -55 0 -36 4 -49 14 -49 11 0 16 15 18 53 3 44 6 52 23 52 17 0 20
-8 23 -52 2 -38 7 -53 18 -53 18 0 20 100 2 118 -15 15 -55 16 -63 2 -4 -7
-11 -8 -18 -2 -7 5 -31 10 -54 9 l-43 0 0 -63z"/>
<path d="M2900 756 c0 -63 10 -74 68 -73 l42 0 0 63 c0 49 -3 64 -14 64 -11 0
-16 -15 -18 -52 -3 -45 -6 -53 -23 -53 -17 0 -20 8 -23 53 -2 37 -7 52 -18 52
-10 0 -14 -14 -14 -54z"/>
<path d="M3110 745 c0 -51 3 -65 15 -65 12 0 15 14 15 65 0 51 -3 65 -15 65
-12 0 -15 -14 -15 -65z"/>
<path d="M3320 790 c-40 -40 -11 -110 45 -110 32 0 65 33 65 65 0 32 -33 65
-65 65 -14 0 -34 -9 -45 -20z m68 -12 c30 -30 -2 -93 -36 -71 -21 13 -27 50
-12 69 15 17 32 18 48 2z"/>
<path d="M3464 748 c32 -84 50 -84 82 0 19 51 20 62 8 62 -8 0 -19 -12 -24
-27 -26 -70 -26 -71 -42 -23 -8 26 -22 46 -31 48 -14 3 -13 -5 7 -60z"/>
<path d="M533 573 c-4 -10 -11 -22 -17 -26 -8 -6 -7 -10 2 -14 7 -3 12 -25 12
-59 0 -41 4 -54 15 -54 11 0 15 13 15 54 0 34 5 57 13 60 10 5 10 7 0 12 -18
8 -16 24 3 24 8 0 12 5 9 10 -10 16 -45 11 -52 -7z"/>
<path d="M1120 505 c0 -69 3 -85 15 -85 12 0 15 14 15 62 l0 61 40 -61 c56
-88 70 -83 70 23 0 69 -3 85 -15 85 -12 0 -15 -14 -15 -62 l0 -61 -40 61 c-56
88 -70 83 -70 -23z"/>
<path d="M1800 505 c0 -69 3 -85 15 -85 10 0 15 11 15 35 0 34 1 35 39 35 63
0 93 47 53 83 -12 11 -36 17 -70 17 l-52 0 0 -85z m98 56 c8 -5 12 -17 10 -27
-2 -14 -13 -20 -41 -22 -35 -3 -37 -2 -37 27 0 27 3 31 28 31 15 0 33 -4 40
-9z"/>
<path d="M2200 580 c0 -5 7 -10 15 -10 8 0 15 5 15 10 0 6 -7 10 -15 10 -8 0
-15 -4 -15 -10z"/>
<path d="M2553 573 c-4 -10 -11 -21 -17 -25 -8 -6 -7 -10 1 -16 6 -4 13 -30
15 -57 3 -46 5 -50 31 -53 29 -4 37 12 12 22 -10 3 -15 19 -15 46 0 29 4 40
15 40 8 0 15 5 15 10 0 6 -7 10 -15 10 -8 0 -15 9 -15 20 0 25 -18 26 -27 3z"/>
<path d="M600 484 c0 -49 3 -64 14 -64 11 0 16 14 18 48 2 38 7 49 26 57 33
15 27 22 -18 22 l-40 0 0 -63z"/>
<path d="M700 530 c-11 -11 -20 -31 -20 -45 0 -14 9 -34 20 -45 11 -11 31 -20
45 -20 14 0 34 9 45 20 11 11 20 31 20 45 0 14 -9 34 -20 45 -11 11 -31 20
-45 20 -14 0 -34 -9 -45 -20z m68 -12 c30 -30 -2 -93 -36 -71 -21 13 -27 50
-12 69 15 17 32 18 48 2z"/>
<path d="M830 484 c0 -50 3 -64 15 -64 11 0 15 12 15 49 0 35 4 51 16 55 26
10 34 -3 34 -55 0 -36 4 -49 14 -49 11 0 16 15 18 53 3 44 6 52 23 52 17 0 20
-8 23 -52 2 -38 7 -53 18 -53 18 0 20 100 2 118 -15 15 -55 16 -63 2 -4 -7
-11 -8 -18 -2 -7 5 -31 10 -54 9 l-43 0 0 -63z"/>
<path d="M1310 530 c-11 -11 -20 -31 -20 -45 0 -14 9 -34 20 -45 11 -11 31
-20 45 -20 14 0 34 9 45 20 11 11 20 31 20 45 0 14 -9 34 -20 45 -11 11 -31
20 -45 20 -14 0 -34 -9 -45 -20z m68 -12 c30 -30 -2 -93 -36 -71 -21 13 -27
50 -12 69 15 17 32 18 48 2z"/>
<path d="M1440 496 c0 -63 10 -74 68 -73 l42 0 0 63 c0 49 -3 64 -14 64 -11 0
-16 -15 -18 -52 -3 -45 -6 -53 -23 -53 -17 0 -20 8 -23 53 -2 37 -7 52 -18 52
-10 0 -14 -14 -14 -54z"/>
<path d="M1580 484 c0 -50 3 -64 15 -64 11 0 15 12 15 49 0 35 4 51 16 55 26
10 34 -3 34 -55 0 -37 4 -49 15 -49 11 0 15 13 15 54 0 63 -10 74 -67 73 l-43
0 0 -63z"/>
<path d="M1960 484 c0 -49 3 -64 14 -64 11 0 16 14 18 48 2 38 7 49 26 57 33
15 27 22 -18 22 l-40 0 0 -63z"/>
<path d="M2060 530 c-11 -11 -20 -31 -20 -45 0 -14 9 -34 20 -45 11 -11 31
-20 45 -20 14 0 34 9 45 20 11 11 20 31 20 45 0 14 -9 34 -20 45 -11 11 -31
20 -45 20 -14 0 -34 -9 -45 -20z m68 -12 c30 -30 -2 -93 -36 -71 -21 13 -27
50 -12 69 15 17 32 18 48 2z"/>
<path d="M2200 471 c0 -54 -4 -81 -12 -84 -7 -2 -9 -8 -5 -13 4 -4 16 -3 25 2
24 16 31 174 7 174 -12 0 -15 -15 -15 -79z"/>
<path d="M2270 530 c-11 -11 -20 -31 -20 -45 0 -53 69 -85 105 -49 22 22 11
30 -20 14 -20 -11 -27 -11 -40 0 -26 21 -17 30 30 30 37 0 45 3 45 18 0 25
-31 52 -58 52 -12 0 -31 -9 -42 -20z m68 -17 c2 -9 -7 -13 -27 -13 -31 0 -42
14 -18 23 19 8 40 3 45 -10z"/>
<path d="M2410 530 c-39 -39 -11 -110 43 -110 22 0 57 27 57 43 0 14 -23 7
-36 -10 -17 -24 -48 -6 -52 29 -4 36 22 55 53 38 31 -16 47 -4 21 16 -28 20
-63 17 -86 -6z"/>
</g>
</svg>
