<!--<?xml version="1.0" standalone="no"?> -->
<!DOCTYPE svg PUBLIC "-//W3C//DTD SVG 20010904//EN"
 "http://www.w3.org/TR/2001/REC-SVG-20010904/DTD/svg10.dtd">
<svg version="1.0" xmlns="http://www.w3.org/2000/svg"
 width="875.000000pt" height="750.000000pt" viewBox="0 0 875.000000 750.000000"
 preserveAspectRatio="xMidYMid meet">

<g transform="translate(0.000000,750.000000) scale(0.100000,-0.100000)"
fill="#000000" stroke="none">
<path d="M4055 7109 c-562 -53 -1135 -265 -1614 -597 -266 -184 -608 -522
-800 -790 -456 -638 -670 -1363 -630 -2138 33 -641 221 -1205 580 -1734 105
-155 185 -253 331 -405 318 -332 580 -527 953 -710 366 -180 668 -271 1095
-331 178 -26 642 -25 825 0 771 106 1426 427 1960 961 1012 1011 1277 2536
665 3831 -108 229 -273 492 -419 669 -98 118 -391 412 -507 507 -437 360 -996
610 -1584 707 -211 35 -640 50 -855 30z m443 -825 c156 -78 485 -578 586 -894
49 -150 66 -253 66 -395 0 -138 -17 -253 -55 -370 -14 -44 -109 -249 -210
-455 -100 -206 -199 -415 -218 -465 -82 -211 -124 -443 -134 -732 l-6 -183 56
0 c68 0 63 -11 71 180 16 390 145 730 387 1015 205 244 493 420 783 480 98 20
294 20 394 -1 130 -26 213 -72 312 -172 145 -148 193 -278 194 -527 0 -133 -3
-161 -27 -247 -96 -352 -367 -610 -720 -688 -31 -7 -59 -11 -61 -9 -3 3 5 45
16 94 29 122 31 317 5 393 -22 62 -101 153 -161 185 -36 19 -56 22 -156 21
-100 0 -124 -4 -188 -28 -110 -41 -182 -87 -269 -173 -137 -134 -207 -255
-259 -442 -20 -72 -18 -75 55 -86 105 -16 151 -60 151 -147 0 -36 -6 -54 -26
-77 -36 -43 -59 -53 -129 -60 -53 -5 -60 -8 -57 -26 4 -29 69 -163 98 -206
l25 -37 75 39 c82 43 148 51 226 27 58 -17 122 -79 159 -153 29 -60 31 -70 27
-147 -6 -101 -34 -162 -105 -229 -63 -59 -141 -89 -231 -89 -230 0 -396 243
-483 705 l-22 115 -51 0 c-83 0 -83 -2 -62 -126 18 -108 65 -306 131 -549 47
-173 53 -252 26 -329 -47 -134 -126 -242 -206 -281 -56 -28 -184 -28 -240 0
-61 29 -127 104 -176 196 -44 83 -44 85 -43 184 0 110 4 131 74 380 54 192 85
331 95 420 3 33 8 70 11 82 4 22 2 23 -70 23 l-73 0 -23 -118 c-92 -476 -250
-702 -491 -702 -238 0 -402 256 -299 466 35 73 100 135 158 152 78 24 144 16
226 -27 l75 -39 25 37 c29 43 94 177 98 206 3 17 -4 21 -54 26 -95 10 -141 55
-142 139 -1 79 55 134 151 149 47 7 48 8 45 39 -4 56 -60 214 -99 282 -52 90
-237 274 -328 328 -108 63 -196 85 -313 80 -129 -6 -179 -31 -254 -130 -54
-70 -72 -152 -65 -290 3 -62 12 -138 20 -168 30 -114 31 -110 0 -110 -52 1
-250 76 -332 125 -154 93 -270 218 -354 383 -78 152 -107 272 -107 437 2 403
231 676 599 713 490 50 1025 -278 1290 -789 122 -234 191 -523 191 -794 0
-105 0 -105 81 -105 81 0 74 -22 59 185 -20 271 -52 457 -111 642 -45 142 -63
183 -248 554 -235 471 -281 621 -268 869 15 273 123 558 331 870 169 253 263
356 351 388 57 20 146 14 203 -14z"/>
</g>
</svg>
