<?xml version="1.0" standalone="no"?>
<!DOCTYPE svg PUBLIC "-//W3C//DTD SVG 20010904//EN"
 "http://www.w3.org/TR/2001/REC-SVG-20010904/DTD/svg10.dtd">
<svg version="1.0" xmlns="http://www.w3.org/2000/svg"
 width="875.000000pt" height="875.000000pt" viewBox="0 0 875.000000 875.000000"
 preserveAspectRatio="xMidYMid meet">

<g transform="translate(0.000000,875.000000) scale(0.100000,-0.100000)"
fill="#000000" stroke="none">
<path d="M4030 8359 c-419 -43 -859 -179 -1240 -382 -154 -82 -398 -241 -515
-337 -104 -84 -375 -349 -480 -470 -268 -307 -497 -721 -634 -1143 -107 -332
-153 -627 -154 -997 -1 -325 24 -558 93 -838 120 -491 373 -989 689 -1356 109
-126 387 -397 501 -488 452 -359 1016 -598 1630 -689 175 -26 566 -37 746 -20
980 90 1835 569 2421 1358 289 389 497 856 593 1333 52 258 64 380 64 670 0
356 -37 621 -129 940 -105 360 -309 774 -522 1060 -139 186 -446 503 -633 652
-509 406 -1185 670 -1820 708 -194 12 -490 11 -610 -1z m441 -813 c20 -7 52
-26 73 -42 89 -70 268 -314 391 -534 218 -389 270 -758 156 -1100 -16 -47
-104 -238 -196 -425 -91 -187 -184 -380 -205 -430 -103 -243 -147 -467 -165
-842 l-7 -133 66 0 66 0 0 78 c0 188 35 414 90 583 79 240 194 424 384 615
201 200 394 317 634 381 86 24 116 27 262 27 183 0 242 -11 359 -66 100 -47
217 -169 269 -278 67 -142 92 -305 72 -475 -40 -339 -237 -612 -543 -755 -81
-38 -244 -86 -255 -76 -3 3 5 59 18 125 44 230 18 383 -82 483 -72 72 -104 83
-243 83 -111 -1 -126 -3 -201 -33 -134 -53 -234 -131 -346 -271 -70 -87 -105
-153 -147 -280 -42 -126 -41 -133 34 -147 114 -20 155 -60 155 -148 0 -36 -6
-52 -31 -80 -34 -39 -51 -46 -129 -55 -51 -6 -55 -8 -52 -31 3 -32 74 -177
105 -214 l23 -29 40 26 c166 110 356 52 424 -130 77 -205 -71 -427 -293 -441
-108 -6 -172 21 -262 112 -82 82 -122 158 -179 333 -28 87 -86 334 -86 367 0
3 -27 6 -60 6 -48 0 -62 -4 -67 -17 -14 -37 31 -250 143 -668 26 -98 37 -163
38 -215 1 -70 -2 -82 -46 -172 -78 -162 -155 -227 -278 -236 -53 -3 -76 0
-118 18 -69 30 -150 118 -198 214 l-36 75 5 128 c4 115 9 144 51 287 62 210
93 339 111 466 8 58 15 108 15 113 0 4 -34 7 -75 7 -41 0 -75 -2 -75 -5 0 -2
-14 -69 -30 -149 -61 -294 -141 -474 -260 -584 -14 -13 -50 -35 -80 -50 -47
-23 -68 -27 -140 -27 -74 0 -92 4 -143 30 -153 77 -225 253 -167 408 68 182
258 240 424 130 l40 -26 23 29 c31 37 102 182 105 214 3 22 -1 25 -47 31 -97
12 -148 60 -148 139 0 78 60 136 152 147 61 7 61 7 25 129 -45 158 -92 233
-228 369 -191 189 -299 240 -496 233 -108 -3 -109 -4 -166 -43 -68 -47 -118
-116 -141 -194 -23 -79 -21 -223 6 -334 25 -105 26 -127 6 -127 -8 0 -59 14
-112 31 -293 93 -493 275 -613 556 -51 121 -64 192 -64 353 0 171 15 244 76
370 53 110 169 229 269 277 126 60 167 68 354 67 151 -1 181 -4 265 -27 258
-70 455 -191 661 -404 261 -270 401 -590 439 -998 5 -60 10 -143 10 -182 l0
-73 76 0 77 0 -7 123 c-10 176 -33 365 -61 499 -44 216 -96 346 -286 728 -234
470 -270 569 -284 790 -23 353 156 784 508 1222 64 81 87 102 139 127 68 34
144 41 209 17z"/>
<path d="M684 1042 c-79 -64 -41 -192 57 -192 51 0 114 59 89 84 -8 8 -18 3
-38 -22 -19 -22 -36 -32 -54 -32 -60 0 -79 104 -27 143 26 19 27 19 67 -4 49
-28 68 -17 29 17 -34 29 -92 32 -123 6z"/>
<path d="M1347 1029 c-9 -17 -15 -35 -12 -40 4 -5 10 -34 15 -66 10 -57 21
-73 53 -73 21 0 23 26 2 34 -22 8 -20 92 3 106 13 8 14 12 4 17 -7 3 -17 16
-22 29 -12 32 -21 30 -43 -7z"/>
<path d="M1757 1053 c-4 -3 -7 -19 -7 -35 0 -25 -2 -27 -19 -18 -51 27 -101
-8 -101 -71 0 -54 36 -81 104 -77 l51 3 3 70 c5 103 -7 152 -31 128z m-25 -80
c31 -28 16 -93 -21 -93 -42 0 -60 71 -25 97 23 16 24 16 46 -4z"/>
<path d="M1915 1028 c-3 -18 -5 -64 -3 -103 l3 -70 51 -3 c39 -2 56 2 77 18
59 47 18 146 -57 138 -25 -2 -31 1 -36 21 -9 37 -28 37 -35 -1z m105 -58 c25
-25 25 -41 2 -71 -22 -27 -47 -21 -64 15 -9 20 -8 30 6 51 20 30 30 31 56 5z"/>
<path d="M2364 1036 c-7 -31 -1 -172 8 -181 17 -17 28 12 28 73 l1 67 35 -72
c19 -40 40 -73 45 -73 6 0 25 32 43 71 l33 72 5 -66 c8 -128 39 -95 36 38 -3
84 -4 90 -25 93 -24 4 -42 -24 -73 -112 l-18 -51 -12 30 c-7 17 -20 53 -29 80
-15 41 -22 51 -44 53 -21 3 -28 -2 -33 -22z"/>
<path d="M3000 1050 c0 -5 6 -10 14 -10 8 0 18 5 21 10 3 6 -3 10 -14 10 -12
0 -21 -4 -21 -10z"/>
<path d="M3430 954 c0 -79 3 -105 12 -102 7 3 15 19 19 37 12 59 26 61 71 9
37 -45 68 -62 68 -38 0 6 -18 35 -39 64 l-40 53 35 34 c64 62 30 70 -39 9 -25
-22 -48 -40 -51 -40 -3 0 -6 18 -6 40 0 29 -4 40 -15 40 -12 0 -15 -18 -15
-106z"/>
<path d="M3814 1025 c-8 -42 -1 -161 9 -172 17 -17 27 27 25 111 -3 95 -21
128 -34 61z"/>
<path d="M3890 1050 c0 -5 7 -10 15 -10 8 0 15 5 15 10 0 6 -7 10 -15 10 -8 0
-15 -4 -15 -10z"/>
<path d="M3966 1038 c-8 -30 -8 -136 0 -166 8 -27 28 -24 32 4 8 48 12 49 47
11 56 -61 74 -46 28 23 l-26 41 21 22 c44 46 19 51 -32 6 l-35 -30 -3 52 c-3
55 -21 76 -32 37z"/>
<path d="M860 953 c0 -70 9 -105 24 -100 6 2 12 14 14 28 8 74 14 90 37 101
35 16 21 28 -31 28 l-44 0 0 -57z"/>
<path d="M986 979 c-34 -40 -33 -64 3 -100 34 -34 69 -37 102 -10 31 25 22 33
-24 19 -28 -9 -40 -8 -52 2 -25 21 -18 27 40 35 45 5 55 10 55 25 0 27 -39 60
-71 60 -18 0 -36 -10 -53 -31z m84 -14 c0 -16 -55 -22 -64 -6 -8 13 5 21 36
21 18 0 28 -5 28 -15z"/>
<path d="M1166 994 c-24 -24 -10 -33 29 -21 26 8 39 7 47 -1 8 -8 5 -13 -13
-20 -13 -6 -37 -15 -52 -21 -15 -6 -30 -18 -34 -27 -10 -27 19 -43 87 -46 l64
-3 -3 44 c-3 51 -17 92 -34 103 -21 13 -75 9 -91 -8z m84 -82 c0 -14 -23 -32
-41 -32 -21 0 -33 16 -24 30 7 12 65 14 65 2z"/>
<path d="M1492 1003 c-16 -6 -42 -56 -42 -82 0 -24 54 -71 81 -71 29 0 59 18
59 36 0 11 -5 14 -17 9 -39 -16 -54 -17 -68 -5 -25 21 -17 28 40 35 62 8 71
26 32 63 -22 21 -56 27 -85 15z m59 -38 c0 -5 -7 -12 -16 -13 -23 -5 -47 6
-40 19 8 13 56 8 56 -6z"/>
<path d="M2093 993 c3 -10 15 -45 28 -79 l23 -61 -23 -31 -22 -32 25 0 c15 0
31 9 40 23 20 29 78 188 72 195 -14 13 -36 -12 -51 -58 l-17 -52 -26 56 c-14
31 -31 56 -40 56 -9 0 -12 -6 -9 -17z"/>
<path d="M2666 994 c-24 -24 -10 -33 29 -21 26 8 39 7 47 -1 8 -8 5 -13 -13
-20 -13 -6 -37 -15 -52 -21 -15 -6 -30 -18 -34 -27 -10 -27 19 -43 87 -46 l64
-3 -3 44 c-3 51 -17 92 -34 103 -21 13 -75 9 -91 -8z m84 -82 c0 -14 -23 -32
-41 -32 -21 0 -33 16 -24 30 7 12 65 14 65 2z"/>
<path d="M2850 969 l21 -41 -25 -33 c-14 -19 -26 -36 -26 -39 0 -14 26 -4 51
20 l27 25 26 -26 c34 -34 53 -23 26 15 -24 33 -26 73 -5 90 19 16 19 30 0 30
-8 0 -22 -11 -31 -25 l-16 -25 -20 25 c-11 14 -26 25 -34 25 -12 0 -10 -8 6
-41z"/>
<path d="M3007 1003 c-11 -11 -8 -141 4 -148 16 -11 21 0 27 54 7 73 -8 118
-31 94z"/>
<path d="M3060 953 c0 -70 9 -105 24 -100 6 2 12 21 14 43 5 71 11 86 35 82
19 -3 23 -11 27 -60 3 -31 8 -59 12 -63 13 -13 28 6 28 34 0 56 12 91 30 91
21 0 30 -19 30 -68 0 -20 5 -44 10 -52 9 -13 11 -13 20 0 15 22 7 130 -11 141
-19 12 -66 11 -74 -1 -4 -6 -15 -6 -31 0 -14 6 -45 10 -70 10 l-44 0 0 -57z"/>
<path d="M3630 947 c0 -77 10 -88 80 -95 l50 -5 0 82 c0 62 -3 81 -14 81 -15
0 -26 -30 -26 -75 -1 -78 -41 -71 -55 10 -14 83 -35 85 -35 2z"/>
<path d="M3892 933 c2 -50 7 -78 16 -81 9 -3 12 17 12 77 0 66 -3 81 -15 81
-13 0 -15 -13 -13 -77z"/>
<path d="M4156 989 c-35 -28 -36 -80 -1 -114 33 -33 70 -32 106 4 36 36 37 60
3 100 -31 37 -69 41 -108 10z m76 -16 c31 -28 16 -93 -21 -93 -42 0 -60 71
-25 97 23 16 24 16 46 -4z"/>
<path d="M4314 983 c12 -48 50 -118 67 -121 17 -3 55 65 66 119 9 48 -16 34
-40 -21 -11 -27 -23 -50 -26 -50 -4 0 -16 23 -28 50 -24 54 -50 69 -39 23z"/>
<path d="M676 725 c-26 -27 -35 -50 -25 -66 5 -7 9 -34 9 -59 0 -25 4 -51 9
-59 16 -25 31 -1 31 50 0 28 5 59 10 69 7 13 7 21 0 25 -15 10 -12 25 6 25 20
0 13 24 -8 28 -9 2 -23 -4 -32 -13z"/>
<path d="M1411 721 c-15 -26 -14 -178 0 -187 18 -11 29 17 29 80 l0 60 48 -70
c26 -38 55 -70 65 -72 16 -3 17 5 15 100 -3 121 -21 138 -28 28 l-5 -74 -43
66 c-56 86 -67 95 -81 69z"/>
<path d="M2252 639 c2 -85 6 -104 18 -104 10 0 16 12 18 38 3 34 6 37 33 37
16 0 45 7 64 14 29 12 35 20 35 44 0 44 -29 63 -105 70 l-66 5 3 -104z m122
55 c9 -8 16 -17 16 -19 0 -15 -38 -35 -66 -35 -32 0 -34 2 -34 35 0 33 2 35
34 35 19 0 42 -7 50 -16z"/>
<path d="M2755 731 c-7 -12 12 -24 25 -16 11 7 4 25 -10 25 -5 0 -11 -4 -15
-9z"/>
<path d="M3189 708 c-23 -29 -24 -36 -12 -58 7 -14 13 -39 13 -57 0 -49 9 -63
41 -63 31 0 39 14 14 24 -23 8 -21 102 3 111 16 6 16 7 0 19 -10 7 -21 23 -26
35 -8 23 -9 22 -33 -11z"/>
<path d="M904 680 c-28 -11 -54 -48 -54 -78 0 -64 99 -97 139 -46 31 39 27 77
-10 108 -33 28 -42 30 -75 16z m54 -32 c17 -17 15 -64 -4 -82 -19 -20 -23 -20
-46 1 -33 30 -18 93 22 93 9 0 21 -5 28 -12z"/>
<path d="M1192 681 c-8 -4 -45 -6 -83 -3 l-69 5 0 -77 c0 -58 3 -76 14 -76 10
0 16 18 21 59 11 99 65 90 65 -11 0 -34 4 -48 14 -48 15 0 26 30 26 76 0 32
22 60 39 50 5 -3 12 -33 16 -66 8 -67 29 -82 38 -26 5 29 -5 101 -15 111 -9
10 -55 14 -66 6z"/>
<path d="M1660 677 c-38 -19 -55 -61 -40 -98 42 -100 183 -35 144 66 -6 15
-54 45 -71 45 -4 0 -19 -6 -33 -13z m62 -34 c23 -21 23 -45 0 -73 -16 -19 -22
-21 -40 -11 -27 14 -37 52 -22 80 13 25 37 27 62 4z"/>
<path d="M1807 676 c-12 -32 -7 -101 9 -124 12 -18 25 -22 71 -22 l55 0 -4 74
c-2 41 -7 78 -11 83 -12 11 -27 -17 -27 -52 0 -49 -11 -75 -30 -75 -21 0 -30
19 -30 64 0 18 -6 40 -13 50 -13 18 -14 18 -20 2z"/>
<path d="M2604 680 c-28 -11 -54 -48 -54 -78 0 -64 99 -97 139 -46 31 39 27
77 -10 108 -33 28 -42 30 -75 16z m54 -32 c17 -17 15 -64 -4 -82 -19 -20 -23
-20 -46 1 -33 30 -18 93 22 93 9 0 21 -5 28 -12z"/>
<path d="M2756 675 c-3 -9 -6 -47 -6 -85 0 -38 -4 -80 -10 -94 -7 -21 -6 -26
5 -26 25 0 38 41 39 122 1 75 -14 119 -28 83z"/>
<path d="M2860 677 c-38 -19 -55 -61 -40 -98 7 -16 21 -34 31 -39 30 -16 75
-11 94 10 17 19 17 20 1 20 -10 0 -26 -5 -37 -11 -16 -8 -25 -7 -40 7 -25 23
-15 32 41 36 37 2 46 7 48 24 2 14 -7 29 -24 43 -31 24 -40 25 -74 8z m58 -34
c2 -9 -8 -13 -32 -13 -20 0 -36 4 -36 9 0 22 60 25 68 4z"/>
<path d="M3050 683 c-31 -11 -60 -47 -60 -73 0 -71 82 -106 129 -56 28 30 12
42 -22 16 -30 -24 -31 -24 -51 -4 -20 20 -21 68 -1 84 11 9 22 9 46 1 40 -14
39 -14 39 3 0 10 -56 41 -64 35 -1 0 -8 -3 -16 -6z"/>
<path d="M750 611 c0 -69 13 -98 31 -70 5 8 9 29 9 47 0 25 8 42 31 63 l31 29
-51 0 -51 0 0 -69z"/>
<path d="M1974 628 c3 -29 6 -63 6 -75 0 -14 6 -23 15 -23 11 0 15 11 15 39 0
55 16 93 38 89 13 -2 19 -19 26 -66 6 -41 13 -62 22 -62 10 0 14 15 14 56 0
84 -9 94 -82 94 l-61 0 7 -52z"/>
<path d="M2450 611 c0 -69 13 -98 31 -70 5 8 9 29 9 47 0 25 8 42 31 63 l31
29 -51 0 -51 0 0 -69z"/>
</g>
</svg>
